<mxfile host="app.diagrams.net" modified="2024-04-12T13:22:29.161Z" agent="Mozilla/5.0 (Macintosh; Intel Mac OS X 10_15_7) AppleWebKit/537.36 (KHTML, like Gecko) Chrome/123.0.0.0 Safari/537.36" version="24.2.3" etag="2D6lqDmaMnVD01fmT9to" type="github">
  <diagram name="Page-1" id="l489_sk_j80CyK_VkDxZ">
    <mxGraphModel>
      <root>
        <mxCell id="0" />
        <mxCell id="1" parent="0" />
      </root>
    </mxGraphModel>
  </diagram>
</mxfile>
